{"title":"Grudge Match 2013 VODRip cropped x264 AC3-MiLLENiUM","uid":9462845,"size":1771931239,"categoryP":"video","categoryS":"movies","magnet":"?xt=urn:btih:0b113017adacbad364d579d2e3ca8f7903b05d09&amp;dn=Grudge+Match+2013+VODRip+cropped+x264+AC3-MiLLENiUM&amp;tr=udp%3A%2F%2Ftracker.openbittorrent.com%3A80&amp;tr=udp%3A%2F%2Fopen.demonii.com%3A1337&amp;tr=udp%3A%2F%2Ftracker.coppersurfer.tk%3A6969&amp;tr=udp%3A%2F%2Fexodus.desync.com%3A6969","seeders":5,"leechers":0,"uploader":"TKTh3K1ng","files":3,"time":1389384569,"description":"[img]http://imageshack.com/a/img545/2469/dyhr.png[/img]\n\nGrudge Match 2013 VODRip cropped x264 AC3-MiLLENiUM\n\n &lt;a href=&quot;\nhttp://www.imdb.com/title/tt1661382/&quot; rel=&quot;nofollow&quot; target=&quot;_NEW&quot;&gt;\nhttp://www.imdb.com/title/tt1661382/&lt;/a&gt;\n\nSource...............: 720p.Shhh\n\nGeneral\nUnique ID : 170227727331128178592261936855877017781 (0x8010AAF137E860AE853B2D80DAA1E0B5)\nComplete name : Grudge Match.2013 VODRip.AC3-MiLLENiUM.mkv\nFormat : Matroska\nFormat version : Version 2\nFile size : 1.64 GiB\nDuration : 1h 52mn\nOverall bit rate mode : Variable\nOverall bit rate : 2 078 Kbps\nEncoded date : UTC 2014-01-10 01:51:21\nWriting application : mkvmerge v6.5.0 ('Isn't she lovely') built on Oct 20 2013 12:50:05\nWriting library : libebml v1.3.0 + libmatroska v1.4.1\n\nVideo\nID : 1\nFormat : AVC\nFormat/Info : Advanced Video Codec\nFormat profile : &lt;a class=&quot;__cf_email__&quot; href=&quot;/cdn-cgi/l/email-protection&quot; data-cfemail=&quot;5119383639111d657f60&quot;&gt;[email&amp;#160;protected]&lt;/a&gt;&lt;script cf-hash='f9e31' type=&quot;text/javascript&quot;&gt;\n/* &lt;![CDATA[ */!function(){try{var t=&quot;currentScript&quot;in document?document.currentScript:function(){for(var t=document.getElementsByTagName(&quot;script&quot;),e=t.length;e--;)if(t[e].getAttribute(&quot;cf-hash&quot;))return t[e]}();if(t&amp;&amp;t.previousSibling){var e,r,n,i,c=t.previousSibling,a=c.getAttribute(&quot;data-cfemail&quot;);if(a){for(e=&quot;&quot;,r=parseInt(a.substr(0,2),16),n=2;a.length-n;n+=2)i=parseInt(a.substr(n,2),16)^r,e+=String.fromCharCode(i);e=document.createTextNode(e),c.parentNode.replaceChild(e,c)}}}catch(u){}}();/* ]]&gt; */&lt;/script&gt;\nFormat settings, CABAC : Yes\nFormat settings, ReFrames : 3 frames\nCodec ID : V_MPEG4/ISO/AVC\nDuration : 1h 52mn\nBit rate mode : Variable\nBit rate : 1 781 Kbps\nMaximum bit rate : 40.0 Mbps\nWidth : 720 pixels\nHeight : 296 pixels\nDisplay aspect ratio : 2.40:1\nFrame rate mode : Constant\nFrame rate : 30.000 fps\nColor space : YUV\nChroma subsampling : 4:2:0\nBit depth : 8 bits\nScan type : Progressive\nBits/(Pixel*Frame) : 0.279\nStream size : 1.41 GiB (86%)\nWriting library : x264 core 140 r2377 1ca7bb9\nLanguage : English\nDefault : Yes\nForced : No\nColor primaries : BT.709\nTransfer characteristics : BT.709\nMatrix coefficients : BT.709\n\nAudio\nID : 2\nFormat : AC-3\nFormat/Info : Audio Coding 3\nMode extension : CM (complete main)\nFormat settings, Endianness : Big\nCodec ID : A_AC3\nDuration : 1h 52mn\nBit rate mode : Constant\nBit rate : 256 Kbps\nChannel(s) : 2 channels\nChannel positions : Front: L R\nSampling rate : 48.0 KHz\nBit depth : 16 bits\nCompression mode : Lossy\nStream size : 207 MiB (12%)\nDefault : Yes\nForced : No\n\nScreens :\n\n[img]http://s29.postimg.org/lhzf4aqqv/Grudge_Match_2013_VODRip_AC3_Mi_LLENi_UM_mkv_sna.png[/img]\n\n[img]http://s29.postimg.org/owm6y6bjb/Grudge_Match_2013_VODRip_AC3_Mi_LLENi_UM_mkv_sna.png[/img]\n\n[img]http://s29.postimg.org/qzwm5ubc7/Grudge_Match_2013_VODRip_AC3_Mi_LLENi_UM_mkv_sna.png[/img]\n\n[img]http://s29.postimg.org/3kep0hrl3/Grudge_Match_2013_VODRip_AC3_Mi_LLENi_UM_mkv_sna.png[/img]\n\n[img]http://s29.postimg.org/q7pcswhrb/Grudge_Match_2013_VODRip_AC3_Mi_LLENi_UM_mkv_sna.png[/img]","torrent":{"xt":"urn:btih:0b113017adacbad364d579d2e3ca8f7903b05d09","amp;dn":"Grudge+Match+2013+VODRip+cropped+x264+AC3-MiLLENiUM","amp;tr":["udp%3A%2F%2Ftracker.openbittorrent.com%3A80","udp%3A%2F%2Fopen.demonii.com%3A1337","udp%3A%2F%2Ftracker.coppersurfer.tk%3A6969","udp%3A%2F%2Fexodus.desync.com%3A6969"],"infoHash":"0b113017adacbad364d579d2e3ca8f7903b05d09","infoHashBuffer":{"type":"Buffer","data":[11,17,48,23,173,172,186,211,100,213,121,210,227,202,143,121,3,176,93,9]},"announce":[],"urlList":[]}}